<?xml version="1.0" encoding="utf-8"?>
<?xml-stylesheet type="text/xsl" href="rss1.xsl"?>
<rss version="2.0" xmlns:atom="http://www.w3.org/2005/Atom" xmlns:content="http://purl.org/rss/1.0/modules/content/" xmlns:dc="http://purl.org/dc/elements/1.1/" xmlns:media="http://search.yahoo.com/mrss/">
<channel>
 <title>Getty</title>
 <link>http://www.gettyimg.com/</link>
 <atom:link href="http://www.gettyimg.com/" rel="self" type="application/rss+xml" />

 
                <item>
                <title><![CDATA[【HD Live Performances】WEB-RiP - Black Country, New Road - Coachella 2024 Weekend 1 1080p]]></title>
                <link><![CDATA[https://sharemania.us/threads/black-country-new-road-coachella-2024-weekend-1-1080p.242062/]]></link>
                <description><![CDATA[<article>
<blockquote class="messageText SelectQuoteContainer ugc baseHtml">
Black Country, New Road<br>
Coachella Valley Music and Arts Festival, Empire Polo Club, Indio, California, USA<br>
2024-04-12<br>
<br>
<img src="https://images2.imgbox.com/02/e5/785uhjX2_o.png" class="bbCodeImage LbImage" alt="[​IMG]" data-url="https://images2.imgbox.com/02/e5/785uhjX2_o.png" style=""> <br>
<br>
<b>Source:</b> Youtube Livestream &gt; yt-dlp &gt; ffmpeg &gt; LosslessCut<br>
<br>
<b><span style="text-decoration: underline">Setlist</span></b><br>
Horses<br>
The Boy<br>
<span style="color: #808080">(Unknown)</span><br>
<span style="color: #000000">For the Cold Country<br>
Socks</span><br>
Dancers<br>
<br>
<div class="ToggleTriggerAnchor bbCodeSpoilerContainer">
<button type="button" class="button bbCodeSpoilerButton ToggleTrigger Tooltip JsOnly" data-target="> .SpoilerTarget"><span>Spoiler: <span class="SpoilerTitle">MediaInfo</span></span></button>
<div class="SpoilerTarget bbCodeSpoilerText"><b><span style="text-decoration: underline">General</span></b><br>
Format: MPEG-4<br>
Format profile: Base Media<br>
Codec ID: isom (isom/iso2/avc1/mp41)<br>
File size: 377 MiB<br>
Duration: 40 min 56 s<br>
Overall bit rate: 1 288 kb/s<br>
Frame rate: 30.000 FPS<br>
Writing application: Lavf60.3.100<br>
<br>
<b><span style="text-decoration: underline">Video</span></b><br>
ID: 1<br>
Format: AVC<br>
Format/Info: Advanced Video Codec<br>
Format profile: High@L4<br>
Format settings: CABAC / 1 Ref Frames<br>
Format settings, CABAC: Yes<br>
Format settings, Reference frames: 1 frame<br>
Codec ID: avc1<br>
Codec ID/Info: Advanced Video Coding<br>
Duration: 40 min 56 s<br>
Source duration: 40 min 56 s<br>
Bit rate: 1 152 kb/s<br>
Maximum bit rate: 1 219 kb/s<br>
Width: 1 920 pixels<br>
Height: 1 080 pixels<br>
Display aspect ratio: 16:9<br>
Frame rate mode: Constant<br>
Frame rate: 30.000 FPS<br>
Color space: YUV<br>
Chroma subsampling: 4:2:0<br>
Bit depth: 8 bits<br>
Scan type: Progressive<br>
Bits/(Pixel*Frame): 0.019<br>
Stream size: 337 MiB (89%)<br>
Source stream size: 337 MiB (89%)<br>
Color range: Limited<br>
Color primaries: BT.709<br>
Transfer characteristics: BT.709<br>
Matrix coefficients: BT.709<br>
Codec configuration box: avcC<br>
<br>
<b><span style="text-decoration: underline">Audio</span></b><br>
ID: 2<br>
Format: AAC LC<br>
Format/Info: Advanced Audio Codec Low Complexity<br>
Codec ID: mp4a-40-2<br>
Duration: 40 min 56 s<br>
Bit rate mode: Constant<br>
Bit rate: 128 kb/s<br>
Channel(s): 2 channels<br>
Channel layout: L R<br>
Sampling rate: 44.1 kHz<br>
Frame rate: 43.066 FPS (1024 SPF)<br>
Compression mode: Lossy<br>
Stream size: 37.5 MiB (10%)<br>
Default: Yes<br>
Alternate group: 1</div>
</div><br>
<div class="bbCodeBlock bbCodeVfcHH HiddenContent">
<div class="attribution type">Hidden Content:</div>
<blockquote>You must reply before you can see the hidden data contained here.</blockquote>
</div>
<div class="messageTextEndMarker">&nbsp;</div>
</blockquote>
</article>]]></description>
                <author><![CDATA[coolguy789]]></author>
                </item>

                
                <item>
                <title><![CDATA[【UPSCALED】Tina Turner - What’s Love Got To Do With It [1080p AI Upscale | HEVC 10-bit | PCM 24-bit 96 kHz]]]></title>
                <link><![CDATA[https://sharemania.us/threads/tina-turner-what%E2%80%99s-love-got-to-do-with-it-1080p-ai-upscale-hevc-10-bit-pcm-24-bit-96-khz.242064/]]></link>
                <description><![CDATA[<article>
<blockquote class="messageText SelectQuoteContainer ugc baseHtml">
thanks
<div class="messageTextEndMarker">&nbsp;</div>
</blockquote>
</article>]]></description>
                <author><![CDATA[ADHDerby]]></author>
                </item>

                
                <item>
                <title><![CDATA[【Music Videos】Dua Lipa - Illusion [4K AM HEVC WEB-DL DDP 5.1 ATMOS+ALAC] - By RK✪]]></title>
                <link><![CDATA[https://sharemania.us/threads/dua-lipa-illusion-4k-am-hevc-web-dl-ddp-5-1-atmos-alac-by-rk%E2%9C%AA.242065/]]></link>
                <description><![CDATA[<article>
<blockquote class="messageText SelectQuoteContainer ugc baseHtml">
Thank you
<div class="messageTextEndMarker">&nbsp;</div>
</blockquote>
</article>]]></description>
                <author><![CDATA[RK94]]></author>
                </item>

                
                <item>
                <title><![CDATA[【HD Live Performances】WEB-RiP - Lana Del Rey - Coachella 12-04-2024 (1080p)]]></title>
                <link><![CDATA[https://sharemania.us/threads/lana-del-rey-coachella-12-04-2024-1080p.242066/]]></link>
                <description><![CDATA[<article>
<blockquote class="messageText SelectQuoteContainer ugc baseHtml">
<img src="https://images2.imgbox.com/ed/b3/mzOv8EnZ_o.jpg" class="bbCodeImage LbImage" alt="[​IMG]" data-url="https://images2.imgbox.com/ed/b3/mzOv8EnZ_o.jpg" style=""><br>
<br>
<b>Genre: <span style="color: #0059b3">Rock, Funk / Soul, Pop</span> <br>
Style: <span style="color: #0059b3">Pop Rock, Soul</span> <br>
Year: <span style="color: #0059b3">1984</span> <br>
Video Source: <span style="color: #0059b3">DVD <b>(Simply The Best)</b>, 576i</span><br>
Audio Source: <span style="color: #0059b3">HDtracks, thanks papa1954</span></b><br>
<br>
"<b>What's Love Got to Do with It</b>" is a song written by Graham Lyle and Terry Britten, and recorded by Tina Turner for her fifth studio album, <i>Private Dancer</i> (1984). Capitol Records released it as a single from <i>Private Dancer</i> in May 1984 and it eventually became Turner's biggest-selling single.<br>
<br>
Although Turner had already scored a late-1983 top 30 hit with her rendition of Al Green's "Let's Stay Together", "What's Love Got to Do with It" became her first and only <i>Billboard</i> Hot 100 number-one single, selling over 2,000,000 copies worldwide. At the time, aged 44, Turner became the oldest solo female artist to top the Hot 100. It was the second-biggest single of 1984 in the United States and the 17th-biggest in the United Kingdom, where it peaked at number three on the UK Singles Chart. "What's Love Got to Do with It" received three awards at the 27th Annual Grammy Awards: Record of the Year, Song of the Year, and Best Female Pop Vocal Performance. In 1993, the song's title was used as the title for the biographical film based on Turner's life.<br>
<br>
The accompanying music video, directed by Mark Robinson, features Turner walking down the street in a leather miniskirt, engaging with the public, intercut with scenes where she is singing directly to camera. The video was shot in New York City during the spring of 1984. Pamela Springsteen, Bruce Springsteen's sister from <i>Sleepaway Camp 2</i>, makes an appearance as a street dancer along with Vanessa Bell Calloway, who would later portray the fictional character of Jackie (Turner's friend) in the 1993 film <i>What's Love Got to Do with It</i>. - In 1985 it claimed a prize at the MTV Video Music Awards for "Best Female Video".<br>
<br>
An alternate black-and-white video directed by Bud Schaetzle features Tina singing the song against a black background while couples argue in a bar.<br>
<br>
<b>Release Info</b><br>
The video track is upscaled from 576i to 1080p 50 fps with Topaz Video AI, encoded to HEVC 10-bit.<br>
The PCM track is the 2015 Remaster (HDtracks 24-bit 96 kHz), synced with Adobe Audition.<br>
The timed lyrics are created from scratch. Enable the subtitles to see the lyrics.<br>
<br>
<div class="ToggleTriggerAnchor bbCodeSpoilerContainer">
<button type="button" class="button bbCodeSpoilerButton ToggleTrigger Tooltip JsOnly" data-target="> .SpoilerTarget"><span>Spoiler: <span class="SpoilerTitle">Media Info</span></span></button>
<div class="SpoilerTarget bbCodeSpoilerText">
<div class="bbCodeBlock bbCodeCode">
<div class="type">Code:</div>
<pre>General
Unique ID                      : 246273905116407139324005452955380712711 (0xB946A0FB8F1FDFB64977DEC92EE18507)
Complete name                  : Tina Turner - What’s Love Got To Do With It.mkv
Format                         : Matroska
Format version                 : Version 4 / Version 2
File size                      : 554 MiB
Duration                       : 3 min 50 s
Overall bit rate               : 20.2 Mb/s
Frame rate                     : 49.860 FPS
Encoded date                   : 2024-04-12 14:36:24 UTC
Writing application            : mkvmerge v83.0 ('Circle Of Friends') 64-bit
Writing library                : libebml v1.4.5 + libmatroska v1.7.1

Video
ID                             : 1
Format                         : HEVC
Format/Info                    : High Efficiency Video Coding
Format profile                 : Main 10@L4.1@Main
Codec ID                       : V_MPEGH/ISO/HEVC
Duration                       : 3 min 49 s
Bit rate                       : 15.6 Mb/s
Width                          : 1 440 pixels
Height                         : 1 080 pixels
Display aspect ratio           : 4:3
Original display aspect ratio  : 4:3
Frame rate mode                : Constant
Frame rate                     : 49.860 FPS
Original frame rate            : 50.000 FPS
Color space                    : YUV
Chroma subsampling             : 4:2:0
Bit depth                      : 10 bits
Bits/(Pixel*Frame)             : 0.202
Stream size                    : 427 MiB (77%)
Default                        : Yes
Forced                         : No
Color range                    : Limited
Color primaries                : BT.709
Transfer characteristics       : BT.709
Matrix coefficients            : BT.709

Audio
ID                             : 2
Format                         : PCM
Format settings                : Little / Signed
Codec ID                       : A_PCM/INT/LIT
Duration                       : 3 min 50 s
Bit rate mode                  : Constant
Bit rate                       : 4 608 kb/s
Channel(s)                     : 2 channels
Sampling rate                  : 96.0 kHz
Frame rate                     : 25.000 FPS (3840 SPF)
Bit depth                      : 24 bits
Stream size                    : 126 MiB (23%)
Title                          : 2015 Remaster, 24-bit 96 kHz
Language                       : English
Default                        : Yes
Forced                         : No

Text
ID                             : 3
Format                         : UTF-8
Codec ID                       : S_TEXT/UTF8
Codec ID/Info                  : UTF-8 Plain Text
Duration                       : 3 min 26 s
Bit rate                       : 55 b/s
Frame rate                     : 0.174 FPS
Count of elements              : 36
Stream size                    : 1.40 KiB (0%)
Title                          : Lyrics
Language                       : English
Default                        : No
Forced                         : No
</pre>
</div></div>
</div><br>
<b>Note to the peeps @ RuTracker: Give credit if you post the work of someone else!</b><br>
- Hurby4 aka ADHDerby<br>
<br>
<div class="bbCodeBlock bbCodeVfcHH HiddenContent">
<div class="attribution type">Hidden Content:</div>
<blockquote>You must reply before you can see the hidden data contained here.</blockquote>
</div>
<div class="messageTextEndMarker">&nbsp;</div>
</blockquote>
</article>]]></description>
                <author><![CDATA[ImenaOphelia]]></author>
                </item>

                
                <item>
                <title><![CDATA[【Albums (lossless)】FLAC - Various Artists - ユートラ♨ ユーリ!!! on ICE サウンド・トラックCOLLECTION [16bit / 44.1kHz]]]></title>
                <link><![CDATA[https://sharemania.us/threads/various-artists-%E3%83%A6%E3%83%BC%E3%83%88%E3%83%A9%E2%99%A8-%E3%83%A6%E3%83%BC%E3%83%AA-on-ice-%E3%82%B5%E3%82%A6%E3%83%B3%E3%83%89%E3%83%BB%E3%83%88%E3%83%A9%E3%83%83%E3%82%AFcollection-16bit-44-1khz.242063/]]></link>
                <description><![CDATA[<article>
<blockquote class="messageText SelectQuoteContainer ugc baseHtml">
<b>Dua Lipa - Illusion [4K AM HEVC WEB-DL DDP 5.1 ATMOS+ALAC] - By RK✪</b><br>
<br>
<b><i><span style="color: #0000ff">Hear The Difference!</span></i></b><br>
<br>
<div class="bbCodeBlock bbCodeCode">
<div class="type">Code:</div>
<pre>Media Info:
Format                      : Matroska
Format version              : Version 4
File size                   : 517 MiB
Duration                    : 3 min 9 s
Overall bit rate            : 22.9 Mb/s
Frame rate                  : 23.976 FPS
Movie name                  : Dua Lipa - Illusion - By RK✪
Encoded date                : 2024-04-13 10:03:20 UTC
Writing application         : mkvmerge v81.0 ('Milliontown') 64-bit
Writing library             : libebml v1.4.4 + libmatroska v1.7.1
Video
ID                          : 1
Format                      : HEVC
Format/Info                 : High Efficiency Video Coding
Format profile              : Main 10@L5@High
Codec ID                    : V_MPEGH/ISO/HEVC
Duration                    : 3 min 8 s
Bit rate                    : 20.3 Mb/s
Width                       : 3 140 pixels
Height                      : 2 160 pixels
Display aspect ratio        : 3:2
Frame rate mode             : Constant
Frame rate                  : 23.976 (23976/1000) FPS
Color space                 : YUV
Chroma subsampling          : 4:2:0
Bit depth                   : 10 bits
Bits/(Pixel*Frame)          : 0.125
Stream size                 : 456 MiB (88%)
Title                       : - By RK✪
Default                     : Yes
Forced                      : No
Color range                 : Limited
Color primaries             : BT.709
Transfer characteristics    : BT.709
Matrix coefficients         : BT.709
Audio #1
ID                          : 2
Format                      : E-AC-3 JOC
Format/Info                 : Enhanced AC-3 with Joint Object Coding
Commercial name             : Dolby Digital Plus with Dolby Atmos
Codec ID                    : A_EAC3
Duration                    : 3 min 8 s
Bit rate mode               : Constant
Bit rate                    : 768 kb/s
Channel(s)                  : 6 channels
Channel layout              : L R C LFE Ls Rs
Sampling rate               : 48.0 kHz
Frame rate                  : 31.250 FPS (1536 SPF)
Compression mode            : Lossy
Delay relative to video     : 808 ms
Stream size                 : 17.2 MiB (3%)
Title                       : - By RK✪
Language                    : English
Service kind                : Complete Main
Default                     : Yes
Forced                      : No
Complexity index            : 16
Number of dynamic objects   : 15
Bed channel count           : 1 channel
Bed channel configuration   : LFE
Audio #2
ID                          : 3
Format                      : ALAC
Codec ID                    : A_ALAC
Codec ID/Info               : Apple Lossless Audio Codec
Duration                    : 3 min 8 s
Bit rate                    : 1 668 kb/s
Channel(s)                  : 2 channels
Sampling rate               : 44.1 kHz
Frame rate                  : 10.767 FPS (4096 SPF)
Delay relative to video     : 878 ms
Stream size                 : 37.4 MiB (7%)
Title                       : - By RK✪
Language                    : English
Default                     : No
Forced                      : No
Audio #3
ID                          : 4
Format                      : AAC LC
Format/Info                 : Advanced Audio Codec Low Complexity
Codec ID                    : A_AAC-2
Duration                    : 3 min 8 s
Bit rate                    : 265 kb/s
Channel(s)                  : 2 channels
Channel layout              : L R
Sampling rate               : 48.0 kHz
Frame rate                  : 46.875 FPS (1024 SPF)
Compression mode            : Lossy
Stream size                 : 5.87 MiB (1%)
Title                       : - By RK✪
Language                    : English
Default                     : No
Forced                      : No
Text
ID                          : 5
Format                      : UTF-8
Codec ID                    : S_TEXT/UTF8
Codec ID/Info               : UTF-8 Plain Text
Duration                    : 3 min 1 s
Bit rate                    : 66 b/s
Frame rate                  : 0.276 FPS
Count of elements           : 50
Stream size                 : 1.47 KiB (0%)
Title                       : - By RK✪
Language                    : English
Default                     : Yes
Forced                      : No
</pre>
</div><b><span style="color: #ff0000">Password:</span></b><br>
<br>
<div class="bbCodeBlock bbCodeVfcHH HiddenContent">
<div class="attribution type">Hidden Content:</div>
<blockquote>You must reply before you can see the hidden data contained here.</blockquote>
</div><b><span style="color: #00ff00">Link:</span></b><br>
<br>
<div class="bbCodeBlock bbCodeVfcHH HiddenContent">
<div class="attribution type">Hidden Content:</div>
<blockquote>You must reply before you can see the hidden data contained here.</blockquote>
</div>
<div class="messageTextEndMarker">&nbsp;</div>
</blockquote>
</article>]]></description>
                <author><![CDATA[Pools]]></author>
                </item>

                </channel></rss>